<mxfile host="65bd71144e">
    <diagram id="9DYTOfJVYOv7nUz1jsKY" name="Page-1">
        <mxGraphModel dx="358" dy="662" grid="1" gridSize="10" guides="1" tooltips="1" connect="1" arrows="1" fold="1" page="1" pageScale="1" pageWidth="850" pageHeight="1100" math="0" shadow="0">
            <root>
                <mxCell id="0"/>
                <mxCell id="1" parent="0"/>
                <mxCell id="2" value="Data Ingestion Config" style="rounded=1;whiteSpace=wrap;html=1;arcSize=33;" vertex="1" parent="1">
                    <mxGeometry x="240" y="260" width="150" height="60" as="geometry"/>
                </mxCell>
            </root>
        </mxGraphModel>
    </diagram>
</mxfile>